# xmcd
#
# Track frame offsets: 
#        150
#        17915
#        33198
#        50312
#        66831
#        92028
#        104854
#        128242
#        147114
#        162606
#
# Disc length: 2430 seconds
#
# Revision: 0
# Processed by: cddbd v1.5.2PL0 Copyright (c) Steve Scherf et al.
# Submitted via: ExactAudioCopy v1.2
#
DISCID=8c097c0a
DTITLE=Darryl Ellyson - Been Out Traveling
DYEAR=2017
DGENRE=Blues
TTITLE0=Been Out Traveling
TTITLE1=Lovin' You
TTITLE2=Ain't Gonna Let You Go
TTITLE3=Baby's Love
TTITLE4=Lost in Your Love
TTITLE5=Pushin' Against My Heart
TTITLE6=The Sweet Times
TTITLE7=Everything I Do
TTITLE8=I'm Gone
TTITLE9=Won't Include You
EXTD=
EXTT0=
EXTT1=
EXTT2=
EXTT3=
EXTT4=
EXTT5=
EXTT6=
EXTT7=
EXTT8=
EXTT9=
PLAYORDER=
